<svg width="36" height="36" viewBox="0 0 36 36" fill="none" xmlns="http://www.w3.org/2000/svg">
<path opacity="0.25" d="M18 21.2925C17.736 21.2925 17.478 21.2235 17.25 21.093L3.75001 13.296C3.522 13.1643 3.33266 12.975 3.20102 12.747C3.06938 12.5189 3.00008 12.2603 3.00008 11.997C3.00008 11.7337 3.06938 11.4751 3.20102 11.247C3.33266 11.019 3.522 10.8297 3.75001 10.698L17.25 2.907C17.715 2.6415 18.285 2.6415 18.75 2.907L32.25 10.698C32.478 10.8297 32.6674 11.019 32.799 11.247C32.9306 11.4751 32.9999 11.7337 32.9999 11.997C32.9999 12.2603 32.9306 12.5189 32.799 12.747C32.6674 12.975 32.478 13.1643 32.25 13.296L18.75 21.093C18.5218 21.224 18.2632 21.2928 18 21.2925Z" fill="#00FFC2"/>
<path opacity="0.5" d="M32.25 16.698L29.304 14.997L18.75 21.093C18.285 21.36 17.715 21.36 17.25 21.093L6.69601 14.997L3.75001 16.698C3.522 16.8297 3.33266 17.019 3.20102 17.247C3.06938 17.4751 3.00008 17.7337 3.00008 17.997C3.00008 18.2603 3.06938 18.5189 3.20102 18.747C3.33266 18.975 3.522 19.1643 3.75001 19.296L17.25 27.093C17.715 27.36 18.285 27.36 18.75 27.093L32.25 19.296C32.478 19.1643 32.6674 18.975 32.799 18.747C32.9306 18.5189 32.9999 18.2603 32.9999 17.997C32.9999 17.7337 32.9306 17.4751 32.799 17.247C32.6674 17.019 32.478 16.8297 32.25 16.698Z" fill="#00FFC2"/>
<path d="M32.25 22.698L29.304 20.997L18.75 27.093C18.285 27.36 17.715 27.36 17.25 27.093L6.69601 20.997L3.75001 22.698C3.522 22.8297 3.33266 23.019 3.20102 23.247C3.06938 23.4751 3.00008 23.7337 3.00008 23.997C3.00008 24.2603 3.06938 24.5189 3.20102 24.747C3.33266 24.975 3.522 25.1643 3.75001 25.296L17.25 33.093C17.715 33.36 18.285 33.36 18.75 33.093L32.25 25.296C32.478 25.1643 32.6674 24.975 32.799 24.747C32.9306 24.5189 32.9999 24.2603 32.9999 23.997C32.9999 23.7337 32.9306 23.4751 32.799 23.247C32.6674 23.019 32.478 22.8297 32.25 22.698Z" fill="#00FFC2"/>
</svg>
