<svg width="36" height="36" viewBox="0 0 36 36" fill="none" xmlns="http://www.w3.org/2000/svg">
<path d="M28.71 19.41C28.77 18.96 28.8 18.495 28.8 18C28.8 17.52 28.77 17.04 28.695 16.59L31.74 14.22C31.8712 14.1118 31.9609 13.9615 31.9937 13.7947C32.0265 13.6279 32.0005 13.4548 31.92 13.305L29.04 8.325C28.9552 8.17434 28.8198 8.05856 28.6579 7.99816C28.4959 7.93776 28.3177 7.93664 28.155 7.995L24.57 9.43499C23.82 8.865 23.025 8.38499 22.14 8.02499L21.6 4.215C21.5734 4.04329 21.4862 3.88681 21.3541 3.77396C21.222 3.66111 21.0538 3.59939 20.88 3.6H15.12C14.76 3.6 14.475 3.855 14.415 4.215L13.875 8.02499C12.99 8.38499 12.18 8.87999 11.445 9.43499L7.86001 7.995C7.53001 7.87499 7.15501 7.995 6.97501 8.325L4.11001 13.305C3.93001 13.62 3.99001 14.01 4.29001 14.22L7.33501 16.59C7.26001 17.04 7.20001 17.535 7.20001 18C7.20001 18.465 7.23001 18.96 7.30501 19.41L4.26001 21.78C4.12879 21.8881 4.03914 22.0385 4.00632 22.2053C3.97349 22.3721 3.99954 22.5452 4.08001 22.695L6.96001 27.675C7.14001 28.005 7.51501 28.11 7.84501 28.005L11.43 26.565C12.18 27.135 12.975 27.615 13.86 27.975L14.4 31.785C14.475 32.145 14.76 32.4 15.12 32.4H20.88C21.24 32.4 21.54 32.145 21.585 31.785L22.125 27.975C23.01 27.615 23.82 27.135 24.555 26.565L28.14 28.005C28.47 28.125 28.845 28.005 29.025 27.675L31.905 22.695C32.085 22.365 32.01 21.99 31.725 21.78L28.71 19.41ZM18 23.4C15.03 23.4 12.6 20.97 12.6 18C12.6 15.03 15.03 12.6 18 12.6C20.97 12.6 23.4 15.03 23.4 18C23.4 20.97 20.97 23.4 18 23.4Z" fill="#00FFC2"/>
</svg>
