<svg width="34" height="34" viewBox="0 0 34 34" fill="none" xmlns="http://www.w3.org/2000/svg">
<path opacity="0.3" d="M17 5.66667C10.7525 5.66667 5.66667 10.7525 5.66667 17C5.66667 19.5783 6.545 21.9442 7.99 23.8425C10.0158 21.3775 14.9317 20.5417 17 20.5417C19.0683 20.5417 23.9842 21.3775 26.01 23.8425C27.515 21.8788 28.3315 19.4741 28.3333 17C28.3333 10.7525 23.2475 5.66667 17 5.66667ZM17 18.4167C14.2517 18.4167 12.0417 16.2067 12.0417 13.4583C12.0417 10.71 14.2517 8.50001 17 8.50001C19.7483 8.50001 21.9583 10.71 21.9583 13.4583C21.9583 16.2067 19.7483 18.4167 17 18.4167Z" fill="#00FFC2"/>
<path d="M17 2.83333C9.18 2.83333 2.83333 9.18 2.83333 17C2.83333 24.82 9.18 31.1667 17 31.1667C24.82 31.1667 31.1667 24.82 31.1667 17C31.1667 9.18 24.82 2.83333 17 2.83333ZM10.0158 25.8967C10.625 24.6217 14.3367 23.375 17 23.375C19.6633 23.375 23.3892 24.6217 23.9842 25.8967C22.0575 27.4267 19.635 28.3333 17 28.3333C14.365 28.3333 11.9425 27.4267 10.0158 25.8967ZM26.01 23.8425C23.9842 21.3775 19.0683 20.5417 17 20.5417C14.9317 20.5417 10.0158 21.3775 7.99 23.8425C6.485 21.8788 5.66851 19.4741 5.66666 17C5.66666 10.7525 10.7525 5.66666 17 5.66666C23.2475 5.66666 28.3333 10.7525 28.3333 17C28.3333 19.5783 27.455 21.9442 26.01 23.8425ZM17 8.5C14.2517 8.5 12.0417 10.71 12.0417 13.4583C12.0417 16.2067 14.2517 18.4167 17 18.4167C19.7483 18.4167 21.9583 16.2067 21.9583 13.4583C21.9583 10.71 19.7483 8.5 17 8.5ZM17 15.5833C15.8242 15.5833 14.875 14.6342 14.875 13.4583C14.875 12.2825 15.8242 11.3333 17 11.3333C18.1758 11.3333 19.125 12.2825 19.125 13.4583C19.125 14.6342 18.1758 15.5833 17 15.5833Z" fill="#00FFC2"/>
</svg>
