<svg width="20" height="20" viewBox="0 0 20 20" fill="none" xmlns="http://www.w3.org/2000/svg">
<path d="M15 13.3333C14.3417 13.3333 13.75 13.5917 13.3083 14.0083L7.425 10.5833C7.46667 10.3917 7.5 10.2 7.5 10C7.5 9.8 7.46667 9.60833 7.425 9.41666L13.3 5.99166C13.7417 6.40833 14.3417 6.66666 15 6.66666C16.3833 6.66666 17.5 5.55 17.5 4.16666C17.5 2.78333 16.3833 1.66666 15 1.66666C13.6167 1.66666 12.5 2.78333 12.5 4.16666C12.5 4.36666 12.5333 4.56666 12.575 4.75L6.7 8.175C6.25 7.75833 5.65833 7.5 5 7.5C3.61667 7.5 2.5 8.61666 2.5 10C2.5 11.3833 3.61667 12.5 5 12.5C5.65833 12.5 6.25 12.2417 6.7 11.825L12.575 15.2583C12.5333 15.4417 12.5 15.6333 12.5 15.8333C12.5 17.2167 13.6167 18.3333 15 18.3333C16.3833 18.3333 17.5 17.2167 17.5 15.8333C17.5 14.45 16.3833 13.3333 15 13.3333Z" fill="#FFF2E9"/>
</svg>
