<svg width="36" height="36" viewBox="0 0 36 36" fill="none" xmlns="http://www.w3.org/2000/svg">
<path opacity="0.5" d="M18 27C16.9617 27 15.9466 26.6921 15.0833 26.1152C14.2199 25.5383 13.547 24.7184 13.1496 23.7591C12.7523 22.7998 12.6483 21.7442 12.8509 20.7258C13.0535 19.7074 13.5535 18.7719 14.2877 18.0377C15.0219 17.3035 15.9574 16.8035 16.9758 16.6009C17.9942 16.3983 19.0498 16.5023 20.0091 16.8996C20.9684 17.297 21.7883 17.9699 22.3652 18.8333C22.9421 19.6966 23.25 20.7117 23.25 21.75C23.2484 23.1419 22.6948 24.4763 21.7106 25.4606C20.7263 26.4448 19.3919 26.9984 18 27Z" fill="#00FFC2"/>
<path d="M21.96 25.158C21.474 25.7349 20.8677 26.1987 20.1837 26.5168C19.4997 26.835 18.7544 26.9998 18 26.9998C17.2456 26.9998 16.5003 26.835 15.8163 26.5168C15.1323 26.1987 14.5261 25.7349 14.04 25.158C12.9599 25.8275 12.0682 26.7611 11.4488 27.8706C10.8295 28.9802 10.5029 30.2293 10.5 31.5C10.5 31.8978 10.658 32.2794 10.9393 32.5607C11.2206 32.842 11.6022 33 12 33H24C24.3978 33 24.7794 32.842 25.0607 32.5607C25.342 32.2794 25.5 31.8978 25.5 31.5C25.4971 30.2293 25.1705 28.9802 24.5512 27.8706C23.9318 26.7611 23.0401 25.8275 21.96 25.158Z" fill="#00FFC2"/>
<path opacity="0.5" d="M31.5 18C31.1328 18.0007 30.7783 17.8661 30.504 17.622L18 6.50699L5.49601 17.622C5.19844 17.8861 4.80812 18.0213 4.41092 17.9976C4.01371 17.974 3.64217 17.7936 3.37801 17.496C3.11386 17.1984 2.97873 16.8081 3.00236 16.4109C3.02599 16.0137 3.20644 15.6421 3.50401 15.378L17.004 3.37799C17.2784 3.13392 17.6328 2.99908 18 2.99908C18.3672 2.99908 18.7217 3.13392 18.996 3.37799L32.496 15.378C32.7237 15.58 32.8845 15.8464 32.9571 16.142C33.0298 16.4375 33.0108 16.7482 32.9027 17.0327C32.7946 17.3172 32.6026 17.562 32.352 17.7348C32.1015 17.9076 31.8043 18.0001 31.5 18Z" fill="#00FFC2"/>
<path opacity="0.25" d="M18 6.507L6 17.1735V31.5C6 31.8978 6.15804 32.2794 6.43934 32.5607C6.72064 32.842 7.10218 33 7.5 33H12C11.6022 33 11.2206 32.842 10.9393 32.5607C10.658 32.2794 10.5 31.8978 10.5 31.5C10.5029 30.2293 10.8295 28.9802 11.4488 27.8706C12.0682 26.7611 12.9599 25.8275 14.04 25.158C13.2133 24.2146 12.7552 23.0044 12.75 21.75C12.75 20.3576 13.3031 19.0223 14.2877 18.0377C15.2723 17.0531 16.6076 16.5 18 16.5C19.3924 16.5 20.7277 17.0531 21.7123 18.0377C22.6969 19.0223 23.25 20.3576 23.25 21.75C23.2448 23.0044 22.7867 24.2146 21.96 25.158C23.0401 25.8275 23.9318 26.7611 24.5512 27.8706C25.1705 28.9802 25.4971 30.2293 25.5 31.5C25.5 31.8978 25.342 32.2794 25.0607 32.5607C24.7794 32.842 24.3978 33 24 33H28.5C28.8978 33 29.2794 32.842 29.5607 32.5607C29.842 32.2794 30 31.8978 30 31.5V17.1735L18 6.507Z" fill="#00FFC2"/>
</svg>
