<svg width="16" height="18" viewBox="0 0 16 18" fill="none" xmlns="http://www.w3.org/2000/svg">
<path d="M13 12.3333C12.3417 12.3333 11.75 12.5917 11.3083 13.0083L5.425 9.58333C5.46667 9.39166 5.5 9.2 5.5 9C5.5 8.8 5.46667 8.60833 5.425 8.41666L11.3 4.99166C11.7417 5.40833 12.3417 5.66666 13 5.66666C14.3833 5.66666 15.5 4.55 15.5 3.16666C15.5 1.78333 14.3833 0.666664 13 0.666664C11.6167 0.666664 10.5 1.78333 10.5 3.16666C10.5 3.36666 10.5333 3.56666 10.575 3.75L4.7 7.175C4.25 6.75833 3.65833 6.5 3 6.5C1.61667 6.5 0.5 7.61666 0.5 9C0.5 10.3833 1.61667 11.5 3 11.5C3.65833 11.5 4.25 11.2417 4.7 10.825L10.575 14.2583C10.5333 14.4417 10.5 14.6333 10.5 14.8333C10.5 16.2167 11.6167 17.3333 13 17.3333C14.3833 17.3333 15.5 16.2167 15.5 14.8333C15.5 13.45 14.3833 12.3333 13 12.3333Z" fill="#019C77"/>
</svg>
