<svg width="66" height="67" viewBox="0 0 66 67" fill="none" xmlns="http://www.w3.org/2000/svg">
<path fill-rule="evenodd" clip-rule="evenodd" d="M28.5181 24.9085C24.2438 27.8683 23.1425 33.7853 26.0582 38.1243L36.6169 53.8372C39.5325 58.1763 45.3612 59.2943 49.6355 56.3344C53.9097 53.3746 55.011 47.4576 52.0954 43.1185L41.5367 27.4057C38.621 23.0666 32.7923 21.9485 28.5181 24.9085ZM30.9099 28.6363C28.3995 30.3749 27.7527 33.85 29.4651 36.3985L39.4599 51.2721C41.1724 53.8206 44.5956 54.4772 47.1061 52.7388C49.6164 51.0004 50.2632 47.5252 48.5508 44.9768L38.5561 30.103C36.8437 27.5547 33.4203 26.8979 30.9099 28.6363Z" fill="#019C77"/>
<path d="M26.0582 38.1243L25.8423 38.2738L26.0582 38.1243ZM28.5181 24.9085L28.6654 25.1277L28.5181 24.9085ZM36.6169 53.8372L36.401 53.9867L36.6169 53.8372ZM49.6355 56.3344L49.7828 56.5536L49.6355 56.3344ZM52.0954 43.1185L52.3113 42.969L52.0954 43.1185ZM41.5367 27.4057L41.7526 27.2561L41.5367 27.4057ZM29.4651 36.3985L29.681 36.249L29.4651 36.3985ZM30.9099 28.6363L30.7626 28.4172L30.9099 28.6363ZM39.4599 51.2721L39.2438 51.4216L39.4599 51.2721ZM47.1061 52.7388L46.9588 52.5196L47.1061 52.7388ZM48.5508 44.9768L48.3349 45.1263L48.5508 44.9768ZM38.5561 30.103L38.772 29.9535L38.5561 30.103ZM26.2741 37.9748C23.4398 33.7569 24.5104 28.0049 28.6654 25.1277L28.3708 24.6893C23.9773 27.7318 22.8453 33.8138 25.8423 38.2738L26.2741 37.9748ZM36.8328 53.6877L26.2741 37.9748L25.8423 38.2738L36.401 53.9867L36.8328 53.6877ZM49.4882 56.1152C45.3332 58.9925 39.6672 57.9057 36.8328 53.6877L36.401 53.9867C39.3981 58.4468 45.3893 59.596 49.7828 56.5536L49.4882 56.1152ZM51.8794 43.2681C54.7137 47.4862 53.6432 53.2379 49.4882 56.1152L49.7828 56.5536C54.1763 53.5111 55.3084 47.4291 52.3113 42.969L51.8794 43.2681ZM41.3207 27.5552L51.8794 43.2681L52.3113 42.969L41.7526 27.2561L41.3207 27.5552ZM28.6654 25.1277C32.8204 22.2504 38.4863 23.3372 41.3207 27.5552L41.7526 27.2561C38.7556 22.796 32.7643 21.6468 28.3708 24.6893L28.6654 25.1277ZM29.681 36.249C28.05 33.8216 28.6661 30.5114 31.0572 28.8556L30.7626 28.4172C28.133 30.2382 27.4553 33.8785 29.2492 36.548L29.681 36.249ZM39.6758 51.1226L29.681 36.249L29.2492 36.548L39.2438 51.4216L39.6758 51.1226ZM46.9588 52.5196C44.5676 54.1754 41.3068 53.55 39.6758 51.1226L39.2438 51.4216C41.0377 54.0912 44.6237 54.7791 47.2534 52.958L46.9588 52.5196ZM48.3349 45.1263C49.966 47.5537 49.3499 50.8638 46.9588 52.5196L47.2534 52.958C49.883 51.1369 50.5606 47.4968 48.7668 44.8272L48.3349 45.1263ZM38.3402 30.2526L48.3349 45.1263L48.7668 44.8272L38.772 29.9535L38.3402 30.2526ZM31.0572 28.8556C33.4484 27.1997 36.7091 27.8252 38.3402 30.2526L38.772 29.9535C36.9781 27.284 33.3923 26.5962 30.7626 28.4172L31.0572 28.8556Z" fill="white"/>
<path fill-rule="evenodd" clip-rule="evenodd" d="M13.1932 16.3516C12.3593 11.1679 15.8228 6.27932 20.9292 5.43274C26.0355 4.58616 30.8512 8.10214 31.6851 13.2859L34.7051 32.0579C35.2101 35.1969 34.1393 38.2277 32.082 40.3182L29.6661 36.6903C30.6338 35.4894 31.1067 33.8878 30.8368 32.237L27.9328 14.4752C27.4353 11.432 24.6017 9.37435 21.6037 9.87947C18.6059 10.3846 16.579 13.2611 17.0767 16.3044L19.9807 34.0661C20.4782 37.1094 23.3118 39.167 26.3096 38.6619C26.3266 38.659 26.3434 38.6561 26.3603 38.6532L28.8852 42.4446C28.2786 42.6856 27.638 42.8659 26.9692 42.9767C21.8628 43.8233 17.0471 40.3073 16.2133 35.1237L13.1932 16.3516Z" fill="url(#paint0_linear)"/>
<path d="M20.9292 5.43274L20.9713 5.69462L20.9292 5.43274ZM13.1932 16.3516L12.9352 16.3943L13.1932 16.3516ZM31.6851 13.2859L31.4271 13.3286L31.6851 13.2859ZM34.705 32.0579L34.447 32.1007L34.705 32.0579ZM32.082 40.3182L31.8654 40.4668L32.0429 40.7334L32.2669 40.5057L32.082 40.3182ZM29.666 36.6903L29.4637 36.5223L29.3404 36.6752L29.4494 36.8389L29.666 36.6903ZM30.8368 32.237L30.5789 32.2805L30.8368 32.237ZM27.9328 14.4752L28.1906 14.4318L27.9328 14.4752ZM21.6037 9.87947L21.6465 10.1412L21.6037 9.87947ZM17.0766 16.3044L16.8187 16.3479L17.0766 16.3044ZM19.9806 34.0661L20.2385 34.0228L19.9806 34.0661ZM26.3095 38.6619L26.3524 38.9237L26.3095 38.6619ZM26.3603 38.6532L26.5768 38.5045L26.4819 38.3621L26.315 38.3918L26.3603 38.6532ZM28.8851 42.4446L28.9804 42.6916L29.2846 42.5706L29.1017 42.2959L28.8851 42.4446ZM26.9692 42.9767L27.0112 43.2386L26.9692 42.9767ZM16.2132 35.1237L15.9553 35.1664L16.2132 35.1237ZM20.887 5.17087C15.6382 6.04106 12.078 11.066 12.9352 16.3943L13.4512 16.3089C12.6405 11.2697 16.0074 6.51758 20.9713 5.69462L20.887 5.17087ZM31.9431 13.2431C31.0859 7.91474 26.1359 4.30066 20.887 5.17087L20.9713 5.69462C25.9352 4.87166 30.6164 8.28954 31.4271 13.3286L31.9431 13.2431ZM34.963 32.0151L31.9431 13.2431L31.4271 13.3286L34.447 32.1007L34.963 32.0151ZM32.2669 40.5057C34.381 38.3575 35.4821 35.2419 34.963 32.0151L34.447 32.1007C34.9379 35.1519 33.8975 38.0979 31.8971 40.1306L32.2669 40.5057ZM29.4494 36.8389L31.8654 40.4668L32.2986 40.1696L29.8826 36.5417L29.4494 36.8389ZM29.8683 36.8584C30.8817 35.6009 31.3773 33.9229 31.0946 32.1936L30.5789 32.2805C30.836 33.8528 30.3859 35.378 29.4637 36.5223L29.8683 36.8584ZM31.0946 32.1936L28.1906 14.4318L27.6749 14.5187L30.5789 32.2805L31.0946 32.1936ZM28.1906 14.4318C27.6694 11.2439 24.7012 9.0886 21.5609 9.6177L21.6465 10.1412C24.5019 9.66012 27.201 11.62 27.6749 14.5187L28.1906 14.4318ZM21.5609 9.6177C18.4206 10.1468 16.2975 13.16 16.8187 16.3479L17.3345 16.261C16.8604 13.3622 18.791 10.6223 21.6465 10.1412L21.5609 9.6177ZM16.8187 16.3479L19.7227 34.1095L20.2385 34.0228L17.3345 16.261L16.8187 16.3479ZM19.7227 34.1095C20.2439 37.2974 23.2121 39.4528 26.3524 38.9237L26.2668 38.4002C23.4113 38.8812 20.7123 36.9214 20.2385 34.0228L19.7227 34.1095ZM26.3524 38.9237C26.3701 38.9207 26.3877 38.9176 26.4053 38.9146L26.315 38.3918C26.2991 38.3946 26.2829 38.3974 26.2668 38.4002L26.3524 38.9237ZM29.1017 42.2959L26.5768 38.5045L26.1437 38.8018L28.6686 42.5932L29.1017 42.2959ZM27.0112 43.2386C27.6984 43.1248 28.3569 42.9396 28.9804 42.6916L28.7897 42.1974C28.2003 42.4319 27.5775 42.6071 26.9269 42.715L27.0112 43.2386ZM15.9553 35.1664C16.8125 40.4948 21.7623 44.1088 27.0112 43.2386L26.9269 42.715C21.9631 43.5378 17.2818 40.12 16.4711 35.0808L15.9553 35.1664ZM12.9352 16.3943L15.9553 35.1664L16.4711 35.0808L13.4512 16.3089L12.9352 16.3943Z" fill="white"/>
<defs>
<linearGradient id="paint0_linear" x1="14.9648" y1="13.0038" x2="38.7454" y2="34.6153" gradientUnits="userSpaceOnUse">
<stop stop-color="#F5212F"/>
<stop offset="1" stop-color="#EB6360"/>
</linearGradient>
</defs>
</svg>
